<?xml version="1.0" encoding="UTF-8" standalone="no"?>
<!DOCTYPE svg PUBLIC "-//W3C//DTD SVG 1.1//EN"
 "http://www.w3.org/Graphics/SVG/1.1/DTD/svg11.dtd">
<!-- Generated by graphviz version 12.1.0 (20240811.2233)
 -->
<!-- Title: G Pages: 1 -->
<svg width="525pt" height="311pt"
 viewBox="0.00 0.00 524.95 310.95" xmlns="http://www.w3.org/2000/svg" xmlns:xlink="http://www.w3.org/1999/xlink">
<g id="graph0" class="graph" transform="scale(1 1) rotate(0) translate(21.6 289.35)">
<title>G</title>
<polygon fill="#111111" stroke="none" points="-21.6,21.6 -21.6,-289.35 503.35,-289.35 503.35,21.6 -21.6,21.6"/>
<!-- App.vue -->
<g id="node1" class="node">
<title>App.vue</title>
<path fill="none" stroke="#c6c5fe" d="M153.83,-145.75C153.83,-145.75 104.17,-145.75 104.17,-145.75 100.21,-145.75 96.25,-141.79 96.25,-137.83 96.25,-137.83 96.25,-129.92 96.25,-129.92 96.25,-125.96 100.21,-122 104.17,-122 104.17,-122 153.83,-122 153.83,-122 157.79,-122 161.75,-125.96 161.75,-129.92 161.75,-129.92 161.75,-137.83 161.75,-137.83 161.75,-141.79 157.79,-145.75 153.83,-145.75"/>
<text text-anchor="middle" x="129" y="-128.45" font-family="Arial" font-size="14.00" fill="#c6c5fe">App.vue</text>
</g>
<!-- assets/utils.ts -->
<g id="node2" class="node">
<title>assets/utils.ts</title>
<path fill="none" stroke="#cfffac" d="M473.83,-207.75C473.83,-207.75 392.67,-207.75 392.67,-207.75 388.71,-207.75 384.75,-203.79 384.75,-199.83 384.75,-199.83 384.75,-191.92 384.75,-191.92 384.75,-187.96 388.71,-184 392.67,-184 392.67,-184 473.83,-184 473.83,-184 477.79,-184 481.75,-187.96 481.75,-191.92 481.75,-191.92 481.75,-199.83 481.75,-199.83 481.75,-203.79 477.79,-207.75 473.83,-207.75"/>
<text text-anchor="middle" x="433.25" y="-190.45" font-family="Arial" font-size="14.00" fill="#cfffac">assets/utils.ts</text>
</g>
<!-- App.vue&#45;&gt;assets/utils.ts -->
<g id="edge1" class="edge">
<title>App.vue&#45;&gt;assets/utils.ts</title>
<path fill="none" stroke="#757575" d="M138.59,-146.24C150.04,-161.51 171.89,-186.71 197.75,-196.88 254.23,-219.08 324.43,-215.09 373.23,-207.88"/>
<polygon fill="#757575" stroke="#757575" points="373.71,-211.34 383.05,-206.33 372.62,-204.43 373.71,-211.34"/>
</g>
<!-- data.ts -->
<g id="node3" class="node">
<title>data.ts</title>
<path fill="none" stroke="#cfffac" d="M453.58,-105.75C453.58,-105.75 412.92,-105.75 412.92,-105.75 408.96,-105.75 405,-101.79 405,-97.83 405,-97.83 405,-89.92 405,-89.92 405,-85.96 408.96,-82 412.92,-82 412.92,-82 453.58,-82 453.58,-82 457.54,-82 461.5,-85.96 461.5,-89.92 461.5,-89.92 461.5,-97.83 461.5,-97.83 461.5,-101.79 457.54,-105.75 453.58,-105.75"/>
<text text-anchor="middle" x="433.25" y="-88.45" font-family="Arial" font-size="14.00" fill="#cfffac">data.ts</text>
</g>
<!-- App.vue&#45;&gt;data.ts -->
<g id="edge2" class="edge">
<title>App.vue&#45;&gt;data.ts</title>
<path fill="none" stroke="#757575" d="M162.03,-122.37C173.2,-118.78 185.9,-115.16 197.75,-112.88 265.63,-99.77 346.27,-95.69 393.11,-94.43"/>
<polygon fill="#757575" stroke="#757575" points="393.12,-97.93 403.03,-94.19 392.95,-90.93 393.12,-97.93"/>
</g>
<!-- feat/1虚拟scroll.ts -->
<g id="node4" class="node">
<title>feat/1虚拟scroll.ts</title>
<path fill="none" stroke="#c6c5fe" d="M330.33,-145.75C330.33,-145.75 216.17,-145.75 216.17,-145.75 212.21,-145.75 208.25,-141.79 208.25,-137.83 208.25,-137.83 208.25,-129.92 208.25,-129.92 208.25,-125.96 212.21,-122 216.17,-122 216.17,-122 330.33,-122 330.33,-122 334.29,-122 338.25,-125.96 338.25,-129.92 338.25,-129.92 338.25,-137.83 338.25,-137.83 338.25,-141.79 334.29,-145.75 330.33,-145.75"/>
<text text-anchor="middle" x="273.25" y="-128.45" font-family="Arial" font-size="14.00" fill="#c6c5fe">feat/1虚拟scroll.ts</text>
</g>
<!-- App.vue&#45;&gt;feat/1虚拟scroll.ts -->
<g id="edge3" class="edge">
<title>App.vue&#45;&gt;feat/1虚拟scroll.ts</title>
<path fill="none" stroke="#757575" d="M161.92,-133.88C172.33,-133.88 184.37,-133.88 196.59,-133.88"/>
<polygon fill="#757575" stroke="#757575" points="196.31,-137.38 206.31,-133.88 196.31,-130.38 196.31,-137.38"/>
</g>
<!-- feat/2nextPage.ts -->
<g id="node5" class="node">
<title>feat/2nextPage.ts</title>
<path fill="none" stroke="#c6c5fe" d="M325.83,-267.75C325.83,-267.75 220.67,-267.75 220.67,-267.75 216.71,-267.75 212.75,-263.79 212.75,-259.83 212.75,-259.83 212.75,-251.92 212.75,-251.92 212.75,-247.96 216.71,-244 220.67,-244 220.67,-244 325.83,-244 325.83,-244 329.79,-244 333.75,-247.96 333.75,-251.92 333.75,-251.92 333.75,-259.83 333.75,-259.83 333.75,-263.79 329.79,-267.75 325.83,-267.75"/>
<text text-anchor="middle" x="273.25" y="-250.45" font-family="Arial" font-size="14.00" fill="#c6c5fe">feat/2nextPage.ts</text>
</g>
<!-- App.vue&#45;&gt;feat/2nextPage.ts -->
<g id="edge4" class="edge">
<title>App.vue&#45;&gt;feat/2nextPage.ts</title>
<path fill="none" stroke="#757575" d="M135.47,-146.03C145.18,-166.27 167.29,-206.91 197.75,-229.88 202.35,-233.34 207.45,-236.37 212.76,-239.01"/>
<polygon fill="#757575" stroke="#757575" points="211.21,-242.16 221.77,-243.02 214.05,-235.76 211.21,-242.16"/>
</g>
<!-- feat/3selectionAddR.ts -->
<g id="node6" class="node">
<title>feat/3selectionAddR.ts</title>
<path fill="none" stroke="#c6c5fe" d="M340.83,-187.75C340.83,-187.75 205.67,-187.75 205.67,-187.75 201.71,-187.75 197.75,-183.79 197.75,-179.83 197.75,-179.83 197.75,-171.92 197.75,-171.92 197.75,-167.96 201.71,-164 205.67,-164 205.67,-164 340.83,-164 340.83,-164 344.79,-164 348.75,-167.96 348.75,-171.92 348.75,-171.92 348.75,-179.83 348.75,-179.83 348.75,-183.79 344.79,-187.75 340.83,-187.75"/>
<text text-anchor="middle" x="273.25" y="-170.45" font-family="Arial" font-size="14.00" fill="#c6c5fe">feat/3selectionAddR.ts</text>
</g>
<!-- App.vue&#45;&gt;feat/3selectionAddR.ts -->
<g id="edge5" class="edge">
<title>App.vue&#45;&gt;feat/3selectionAddR.ts</title>
<path fill="none" stroke="#757575" d="M162,-143.98C173.28,-147.49 186.06,-151.42 197.75,-154.88 203.94,-156.71 210.43,-158.59 216.89,-160.44"/>
<polygon fill="#757575" stroke="#757575" points="215.65,-163.73 226.22,-163.1 217.57,-156.99 215.65,-163.73"/>
</g>
<!-- feat/4moveHover.ts -->
<g id="node7" class="node">
<title>feat/4moveHover.ts</title>
<path fill="none" stroke="#c6c5fe" d="M331.83,-65.75C331.83,-65.75 214.67,-65.75 214.67,-65.75 210.71,-65.75 206.75,-61.79 206.75,-57.83 206.75,-57.83 206.75,-49.92 206.75,-49.92 206.75,-45.96 210.71,-42 214.67,-42 214.67,-42 331.83,-42 331.83,-42 335.79,-42 339.75,-45.96 339.75,-49.92 339.75,-49.92 339.75,-57.83 339.75,-57.83 339.75,-61.79 335.79,-65.75 331.83,-65.75"/>
<text text-anchor="middle" x="273.25" y="-48.45" font-family="Arial" font-size="14.00" fill="#c6c5fe">feat/4moveHover.ts</text>
</g>
<!-- App.vue&#45;&gt;feat/4moveHover.ts -->
<g id="edge6" class="edge">
<title>App.vue&#45;&gt;feat/4moveHover.ts</title>
<path fill="none" stroke="#757575" d="M142.55,-121.7C155.48,-109.69 176.68,-91.5 197.75,-79.88 204.28,-76.27 211.4,-73.03 218.56,-70.15"/>
<polygon fill="#757575" stroke="#757575" points="219.49,-73.54 227.61,-66.73 217.02,-66.99 219.49,-73.54"/>
</g>
<!-- feat/5clickJump.ts -->
<g id="node8" class="node">
<title>feat/5clickJump.ts</title>
<path fill="none" stroke="#c6c5fe" d="M327.33,-23.75C327.33,-23.75 219.17,-23.75 219.17,-23.75 215.21,-23.75 211.25,-19.79 211.25,-15.83 211.25,-15.83 211.25,-7.92 211.25,-7.92 211.25,-3.96 215.21,0 219.17,0 219.17,0 327.33,0 327.33,0 331.29,0 335.25,-3.96 335.25,-7.92 335.25,-7.92 335.25,-15.83 335.25,-15.83 335.25,-19.79 331.29,-23.75 327.33,-23.75"/>
<text text-anchor="middle" x="273.25" y="-6.45" font-family="Arial" font-size="14.00" fill="#c6c5fe">feat/5clickJump.ts</text>
</g>
<!-- App.vue&#45;&gt;feat/5clickJump.ts -->
<g id="edge7" class="edge">
<title>App.vue&#45;&gt;feat/5clickJump.ts</title>
<path fill="none" stroke="#757575" d="M134.85,-121.56C143.91,-100.19 165.44,-56.3 197.75,-32.88 199.55,-31.57 201.42,-30.35 203.35,-29.21"/>
<polygon fill="#757575" stroke="#757575" points="204.76,-32.42 212.09,-24.77 201.59,-26.17 204.76,-32.42"/>
</g>
<!-- feat/1虚拟scroll.ts&#45;&gt;assets/utils.ts -->
<g id="edge8" class="edge">
<title>feat/1虚拟scroll.ts&#45;&gt;assets/utils.ts</title>
<path fill="none" stroke="#757575" d="M322.76,-146.17C331.5,-148.77 340.47,-151.7 348.75,-154.88 366.15,-161.54 384.83,-170.52 400.1,-178.38"/>
<polygon fill="#757575" stroke="#757575" points="398.24,-181.36 408.72,-182.9 401.49,-175.16 398.24,-181.36"/>
</g>
<!-- feat/1虚拟scroll.ts&#45;&gt;data.ts -->
<g id="edge9" class="edge">
<title>feat/1虚拟scroll.ts&#45;&gt;data.ts</title>
<path fill="none" stroke="#757575" d="M322.94,-121.55C345.69,-115.79 372.4,-109.03 393.71,-103.63"/>
<polygon fill="#757575" stroke="#757575" points="394.33,-107.09 403.17,-101.24 392.61,-100.3 394.33,-107.09"/>
</g>
<!-- feat/2nextPage.ts&#45;&gt;assets/utils.ts -->
<g id="edge10" class="edge">
<title>feat/2nextPage.ts&#45;&gt;assets/utils.ts</title>
<path fill="none" stroke="#757575" d="M310.76,-243.55C322.9,-239.34 336.45,-234.52 348.75,-229.88 363.08,-224.46 378.65,-218.22 392.42,-212.57"/>
<polygon fill="#757575" stroke="#757575" points="393.72,-215.83 401.63,-208.78 391.05,-209.36 393.72,-215.83"/>
</g>
<!-- feat/3selectionAddR.ts&#45;&gt;assets/utils.ts -->
<g id="edge11" class="edge">
<title>feat/3selectionAddR.ts&#45;&gt;assets/utils.ts</title>
<path fill="none" stroke="#757575" d="M349.09,-185.35C357.12,-186.37 365.22,-187.39 373.04,-188.38"/>
<polygon fill="#757575" stroke="#757575" points="372.4,-191.83 382.76,-189.61 373.28,-184.88 372.4,-191.83"/>
</g>
<!-- feat/3selectionAddR.ts&#45;&gt;data.ts -->
<g id="edge12" class="edge">
<title>feat/3selectionAddR.ts&#45;&gt;data.ts</title>
<path fill="none" stroke="#757575" d="M326.83,-163.61C334.35,-161.13 341.86,-158.23 348.75,-154.88 371.29,-143.91 394.07,-126.76 410.14,-113.44"/>
<polygon fill="#757575" stroke="#757575" points="412.26,-116.23 417.61,-107.09 407.72,-110.9 412.26,-116.23"/>
</g>
<!-- feat/4moveHover.ts&#45;&gt;data.ts -->
<g id="edge13" class="edge">
<title>feat/4moveHover.ts&#45;&gt;data.ts</title>
<path fill="none" stroke="#757575" d="M322.94,-66.2C345.69,-71.96 372.4,-78.72 393.71,-84.12"/>
<polygon fill="#757575" stroke="#757575" points="392.61,-87.45 403.17,-86.51 394.33,-80.66 392.61,-87.45"/>
</g>
<!-- feat/5clickJump.ts&#45;&gt;data.ts -->
<g id="edge14" class="edge">
<title>feat/5clickJump.ts&#45;&gt;data.ts</title>
<path fill="none" stroke="#757575" d="M326.83,-24.14C334.35,-26.62 341.86,-29.52 348.75,-32.88 371.29,-43.84 394.07,-60.99 410.14,-74.31"/>
<polygon fill="#757575" stroke="#757575" points="407.72,-76.85 417.61,-80.66 412.26,-71.52 407.72,-76.85"/>
</g>
<!-- main.ts -->
<g id="node9" class="node">
<title>main.ts</title>
<path fill="none" stroke="#c6c5fe" d="M52.33,-145.75C52.33,-145.75 7.92,-145.75 7.92,-145.75 3.96,-145.75 0,-141.79 0,-137.83 0,-137.83 0,-129.92 0,-129.92 0,-125.96 3.96,-122 7.92,-122 7.92,-122 52.33,-122 52.33,-122 56.29,-122 60.25,-125.96 60.25,-129.92 60.25,-129.92 60.25,-137.83 60.25,-137.83 60.25,-141.79 56.29,-145.75 52.33,-145.75"/>
<text text-anchor="middle" x="30.12" y="-128.45" font-family="Arial" font-size="14.00" fill="#c6c5fe">main.ts</text>
</g>
<!-- main.ts&#45;&gt;App.vue -->
<g id="edge15" class="edge">
<title>main.ts&#45;&gt;App.vue</title>
<path fill="none" stroke="#757575" d="M60.72,-133.88C68.19,-133.88 76.38,-133.88 84.39,-133.88"/>
<polygon fill="#757575" stroke="#757575" points="84.38,-137.38 94.38,-133.88 84.38,-130.38 84.38,-137.38"/>
</g>
</g>
</svg>
