<?xml version="1.0" encoding="UTF-8" standalone="no"?>
<!DOCTYPE svg PUBLIC "-//W3C//DTD SVG 1.1//EN"
 "http://www.w3.org/Graphics/SVG/1.1/DTD/svg11.dtd">
<!-- Generated by graphviz version 12.1.0 (20240811.2233)
 -->
<!-- Title: G Pages: 1 -->
<svg width="484pt" height="268pt"
 viewBox="0.00 0.00 484.45 267.57" xmlns="http://www.w3.org/2000/svg" xmlns:xlink="http://www.w3.org/1999/xlink">
<g id="graph0" class="graph" transform="scale(1 1) rotate(0) translate(21.6 245.97)">
<title>G</title>
<polygon fill="#111111" stroke="none" points="-21.6,21.6 -21.6,-245.97 462.85,-245.97 462.85,21.6 -21.6,21.6"/>
<!-- App.vue -->
<g id="node1" class="node">
<title>App.vue</title>
<path fill="none" stroke="#c6c5fe" d="M153.83,-128.75C153.83,-128.75 104.17,-128.75 104.17,-128.75 100.21,-128.75 96.25,-124.79 96.25,-120.83 96.25,-120.83 96.25,-112.92 96.25,-112.92 96.25,-108.96 100.21,-105 104.17,-105 104.17,-105 153.83,-105 153.83,-105 157.79,-105 161.75,-108.96 161.75,-112.92 161.75,-112.92 161.75,-120.83 161.75,-120.83 161.75,-124.79 157.79,-128.75 153.83,-128.75"/>
<text text-anchor="middle" x="129" y="-111.45" font-family="Arial" font-size="14.00" fill="#c6c5fe">App.vue</text>
</g>
<!-- data.ts -->
<g id="node2" class="node">
<title>data.ts</title>
<path fill="none" stroke="#cfffac" d="M433.33,-107.75C433.33,-107.75 392.67,-107.75 392.67,-107.75 388.71,-107.75 384.75,-103.79 384.75,-99.83 384.75,-99.83 384.75,-91.92 384.75,-91.92 384.75,-87.96 388.71,-84 392.67,-84 392.67,-84 433.33,-84 433.33,-84 437.29,-84 441.25,-87.96 441.25,-91.92 441.25,-91.92 441.25,-99.83 441.25,-99.83 441.25,-103.79 437.29,-107.75 433.33,-107.75"/>
<text text-anchor="middle" x="413" y="-90.45" font-family="Arial" font-size="14.00" fill="#cfffac">data.ts</text>
</g>
<!-- App.vue&#45;&gt;data.ts -->
<g id="edge1" class="edge">
<title>App.vue&#45;&gt;data.ts</title>
<path fill="none" stroke="#757575" d="M135.53,-129.22C145.02,-148.71 166.48,-185.92 197.75,-200.88 258.3,-229.83 290.32,-233.89 348.75,-200.88 379.62,-183.43 397.1,-144.22 405.54,-118.96"/>
<polygon fill="#757575" stroke="#757575" points="408.83,-120.18 408.44,-109.6 402.14,-118.11 408.83,-120.18"/>
</g>
<!-- feat/1虚拟scroll.ts -->
<g id="node3" class="node">
<title>feat/1虚拟scroll.ts</title>
<path fill="none" stroke="#c6c5fe" d="M330.33,-191.75C330.33,-191.75 216.17,-191.75 216.17,-191.75 212.21,-191.75 208.25,-187.79 208.25,-183.83 208.25,-183.83 208.25,-175.92 208.25,-175.92 208.25,-171.96 212.21,-168 216.17,-168 216.17,-168 330.33,-168 330.33,-168 334.29,-168 338.25,-171.96 338.25,-175.92 338.25,-175.92 338.25,-183.83 338.25,-183.83 338.25,-187.79 334.29,-191.75 330.33,-191.75"/>
<text text-anchor="middle" x="273.25" y="-174.45" font-family="Arial" font-size="14.00" fill="#c6c5fe">feat/1虚拟scroll.ts</text>
</g>
<!-- App.vue&#45;&gt;feat/1虚拟scroll.ts -->
<g id="edge2" class="edge">
<title>App.vue&#45;&gt;feat/1虚拟scroll.ts</title>
<path fill="none" stroke="#757575" d="M146.81,-129.15C160.09,-138.39 179.39,-150.79 197.75,-158.88 201.79,-160.65 206.01,-162.32 210.31,-163.87"/>
<polygon fill="#757575" stroke="#757575" points="209.06,-167.15 219.65,-167.03 211.29,-160.51 209.06,-167.15"/>
</g>
<!-- feat/2nextPage.ts -->
<g id="node4" class="node">
<title>feat/2nextPage.ts</title>
<path fill="none" stroke="#cfffac" d="M325.83,-149.75C325.83,-149.75 220.67,-149.75 220.67,-149.75 216.71,-149.75 212.75,-145.79 212.75,-141.83 212.75,-141.83 212.75,-133.92 212.75,-133.92 212.75,-129.96 216.71,-126 220.67,-126 220.67,-126 325.83,-126 325.83,-126 329.79,-126 333.75,-129.96 333.75,-133.92 333.75,-133.92 333.75,-141.83 333.75,-141.83 333.75,-145.79 329.79,-149.75 325.83,-149.75"/>
<text text-anchor="middle" x="273.25" y="-132.45" font-family="Arial" font-size="14.00" fill="#cfffac">feat/2nextPage.ts</text>
</g>
<!-- App.vue&#45;&gt;feat/2nextPage.ts -->
<g id="edge3" class="edge">
<title>App.vue&#45;&gt;feat/2nextPage.ts</title>
<path fill="none" stroke="#757575" d="M161.92,-121.59C173.69,-123.32 187.53,-125.37 201.36,-127.41"/>
<polygon fill="#757575" stroke="#757575" points="200.51,-130.82 210.92,-128.82 201.54,-123.9 200.51,-130.82"/>
</g>
<!-- feat/3selectionAddR.ts -->
<g id="node5" class="node">
<title>feat/3selectionAddR.ts</title>
<path fill="none" stroke="#c6c5fe" d="M340.83,-107.75C340.83,-107.75 205.67,-107.75 205.67,-107.75 201.71,-107.75 197.75,-103.79 197.75,-99.83 197.75,-99.83 197.75,-91.92 197.75,-91.92 197.75,-87.96 201.71,-84 205.67,-84 205.67,-84 340.83,-84 340.83,-84 344.79,-84 348.75,-87.96 348.75,-91.92 348.75,-91.92 348.75,-99.83 348.75,-99.83 348.75,-103.79 344.79,-107.75 340.83,-107.75"/>
<text text-anchor="middle" x="273.25" y="-90.45" font-family="Arial" font-size="14.00" fill="#c6c5fe">feat/3selectionAddR.ts</text>
</g>
<!-- App.vue&#45;&gt;feat/3selectionAddR.ts -->
<g id="edge4" class="edge">
<title>App.vue&#45;&gt;feat/3selectionAddR.ts</title>
<path fill="none" stroke="#757575" d="M161.92,-112.16C169.33,-111.07 177.56,-109.85 186.09,-108.59"/>
<polygon fill="#757575" stroke="#757575" points="186.55,-112.06 195.94,-107.14 185.53,-105.14 186.55,-112.06"/>
</g>
<!-- feat/4moveHover.ts -->
<g id="node6" class="node">
<title>feat/4moveHover.ts</title>
<path fill="none" stroke="#c6c5fe" d="M331.83,-65.75C331.83,-65.75 214.67,-65.75 214.67,-65.75 210.71,-65.75 206.75,-61.79 206.75,-57.83 206.75,-57.83 206.75,-49.92 206.75,-49.92 206.75,-45.96 210.71,-42 214.67,-42 214.67,-42 331.83,-42 331.83,-42 335.79,-42 339.75,-45.96 339.75,-49.92 339.75,-49.92 339.75,-57.83 339.75,-57.83 339.75,-61.79 335.79,-65.75 331.83,-65.75"/>
<text text-anchor="middle" x="273.25" y="-48.45" font-family="Arial" font-size="14.00" fill="#c6c5fe">feat/4moveHover.ts</text>
</g>
<!-- App.vue&#45;&gt;feat/4moveHover.ts -->
<g id="edge5" class="edge">
<title>App.vue&#45;&gt;feat/4moveHover.ts</title>
<path fill="none" stroke="#757575" d="M146.81,-104.6C160.09,-95.36 179.39,-82.96 197.75,-74.88 201.79,-73.1 206.01,-71.43 210.31,-69.88"/>
<polygon fill="#757575" stroke="#757575" points="211.29,-73.24 219.65,-66.72 209.06,-66.6 211.29,-73.24"/>
</g>
<!-- feat/5clickJump.ts -->
<g id="node7" class="node">
<title>feat/5clickJump.ts</title>
<path fill="none" stroke="#c6c5fe" d="M327.33,-23.75C327.33,-23.75 219.17,-23.75 219.17,-23.75 215.21,-23.75 211.25,-19.79 211.25,-15.83 211.25,-15.83 211.25,-7.92 211.25,-7.92 211.25,-3.96 215.21,0 219.17,0 219.17,0 327.33,0 327.33,0 331.29,0 335.25,-3.96 335.25,-7.92 335.25,-7.92 335.25,-15.83 335.25,-15.83 335.25,-19.79 331.29,-23.75 327.33,-23.75"/>
<text text-anchor="middle" x="273.25" y="-6.45" font-family="Arial" font-size="14.00" fill="#c6c5fe">feat/5clickJump.ts</text>
</g>
<!-- App.vue&#45;&gt;feat/5clickJump.ts -->
<g id="edge6" class="edge">
<title>App.vue&#45;&gt;feat/5clickJump.ts</title>
<path fill="none" stroke="#757575" d="M136.58,-104.59C147.05,-86.19 169.29,-51.66 197.75,-32.88 199.85,-31.49 202.03,-30.2 204.29,-28.99"/>
<polygon fill="#757575" stroke="#757575" points="205.57,-32.25 213.15,-24.85 202.6,-25.91 205.57,-32.25"/>
</g>
<!-- feat/1虚拟scroll.ts&#45;&gt;data.ts -->
<g id="edge7" class="edge">
<title>feat/1虚拟scroll.ts&#45;&gt;data.ts</title>
<path fill="none" stroke="#757575" d="M330.07,-167.55C336.57,-165.13 342.95,-162.27 348.75,-158.88 367.23,-148.07 384.18,-130.58 395.87,-116.77"/>
<polygon fill="#757575" stroke="#757575" points="398.52,-119.06 402.13,-109.1 393.1,-114.64 398.52,-119.06"/>
</g>
<!-- feat/3selectionAddR.ts&#45;&gt;data.ts -->
<g id="edge8" class="edge">
<title>feat/3selectionAddR.ts&#45;&gt;data.ts</title>
<path fill="none" stroke="#757575" d="M349.17,-95.88C357.45,-95.88 365.62,-95.88 373.18,-95.88"/>
<polygon fill="#757575" stroke="#757575" points="372.99,-99.38 382.99,-95.88 372.99,-92.38 372.99,-99.38"/>
</g>
<!-- feat/4moveHover.ts&#45;&gt;data.ts -->
<g id="edge9" class="edge">
<title>feat/4moveHover.ts&#45;&gt;data.ts</title>
<path fill="none" stroke="#757575" d="M319.26,-66.2C329.01,-68.97 339.24,-71.96 348.75,-74.88 356.81,-77.35 365.41,-80.11 373.58,-82.81"/>
<polygon fill="#757575" stroke="#757575" points="372.35,-86.09 382.94,-85.92 374.56,-79.44 372.35,-86.09"/>
</g>
<!-- feat/5clickJump.ts&#45;&gt;data.ts -->
<g id="edge10" class="edge">
<title>feat/5clickJump.ts&#45;&gt;data.ts</title>
<path fill="none" stroke="#757575" d="M330.07,-24.2C336.57,-26.62 342.95,-29.48 348.75,-32.88 367.23,-43.68 384.18,-61.17 395.87,-74.98"/>
<polygon fill="#757575" stroke="#757575" points="393.1,-77.11 402.13,-82.65 398.52,-72.69 393.1,-77.11"/>
</g>
<!-- main.ts -->
<g id="node8" class="node">
<title>main.ts</title>
<path fill="none" stroke="#c6c5fe" d="M52.33,-128.75C52.33,-128.75 7.92,-128.75 7.92,-128.75 3.96,-128.75 0,-124.79 0,-120.83 0,-120.83 0,-112.92 0,-112.92 0,-108.96 3.96,-105 7.92,-105 7.92,-105 52.33,-105 52.33,-105 56.29,-105 60.25,-108.96 60.25,-112.92 60.25,-112.92 60.25,-120.83 60.25,-120.83 60.25,-124.79 56.29,-128.75 52.33,-128.75"/>
<text text-anchor="middle" x="30.12" y="-111.45" font-family="Arial" font-size="14.00" fill="#c6c5fe">main.ts</text>
</g>
<!-- main.ts&#45;&gt;App.vue -->
<g id="edge11" class="edge">
<title>main.ts&#45;&gt;App.vue</title>
<path fill="none" stroke="#757575" d="M60.72,-116.88C68.19,-116.88 76.38,-116.88 84.39,-116.88"/>
<polygon fill="#757575" stroke="#757575" points="84.38,-120.38 94.38,-116.88 84.38,-113.38 84.38,-120.38"/>
</g>
</g>
</svg>
