<?xml version="1.0" encoding="UTF-8" standalone="no"?>
<!DOCTYPE svg PUBLIC "-//W3C//DTD SVG 1.1//EN"
 "http://www.w3.org/Graphics/SVG/1.1/DTD/svg11.dtd">
<!-- Generated by graphviz version 12.1.0 (20240811.2233)
 -->
<!-- Title: G Pages: 1 -->
<svg width="456pt" height="169pt"
 viewBox="0.00 0.00 455.95 169.32" xmlns="http://www.w3.org/2000/svg" xmlns:xlink="http://www.w3.org/1999/xlink">
<g id="graph0" class="graph" transform="scale(1 1) rotate(0) translate(21.6 147.72)">
<title>G</title>
<polygon fill="#111111" stroke="none" points="-21.6,21.6 -21.6,-147.72 434.35,-147.72 434.35,21.6 -21.6,21.6"/>
<!-- App.vue -->
<g id="node1" class="node">
<title>App.vue</title>
<path fill="none" stroke="#c6c5fe" d="M153.83,-86.75C153.83,-86.75 104.17,-86.75 104.17,-86.75 100.21,-86.75 96.25,-82.79 96.25,-78.83 96.25,-78.83 96.25,-70.92 96.25,-70.92 96.25,-66.96 100.21,-63 104.17,-63 104.17,-63 153.83,-63 153.83,-63 157.79,-63 161.75,-66.96 161.75,-70.92 161.75,-70.92 161.75,-78.83 161.75,-78.83 161.75,-82.79 157.79,-86.75 153.83,-86.75"/>
<text text-anchor="middle" x="129" y="-69.45" font-family="Arial" font-size="14.00" fill="#c6c5fe">App.vue</text>
</g>
<!-- data.ts -->
<g id="node2" class="node">
<title>data.ts</title>
<path fill="none" stroke="#cfffac" d="M404.83,-107.75C404.83,-107.75 364.17,-107.75 364.17,-107.75 360.21,-107.75 356.25,-103.79 356.25,-99.83 356.25,-99.83 356.25,-91.92 356.25,-91.92 356.25,-87.96 360.21,-84 364.17,-84 364.17,-84 404.83,-84 404.83,-84 408.79,-84 412.75,-87.96 412.75,-91.92 412.75,-91.92 412.75,-99.83 412.75,-99.83 412.75,-103.79 408.79,-107.75 404.83,-107.75"/>
<text text-anchor="middle" x="384.5" y="-90.45" font-family="Arial" font-size="14.00" fill="#cfffac">data.ts</text>
</g>
<!-- App.vue&#45;&gt;data.ts -->
<g id="edge1" class="edge">
<title>App.vue&#45;&gt;data.ts</title>
<path fill="none" stroke="#757575" d="M144.44,-87.19C157.43,-97.39 177.52,-111.11 197.75,-116.88 250.11,-131.79 266.5,-125.56 320.25,-116.88 328.5,-115.54 337.12,-113.29 345.25,-110.75"/>
<polygon fill="#757575" stroke="#757575" points="346.16,-114.13 354.53,-107.63 343.93,-107.5 346.16,-114.13"/>
</g>
<!-- feat/click.ts -->
<g id="node3" class="node">
<title>feat/click.ts</title>
<path fill="none" stroke="#c6c5fe" d="M292.46,-107.75C292.46,-107.75 225.54,-107.75 225.54,-107.75 221.58,-107.75 217.62,-103.79 217.62,-99.83 217.62,-99.83 217.62,-91.92 217.62,-91.92 217.62,-87.96 221.58,-84 225.54,-84 225.54,-84 292.46,-84 292.46,-84 296.42,-84 300.38,-87.96 300.38,-91.92 300.38,-91.92 300.38,-99.83 300.38,-99.83 300.38,-103.79 296.42,-107.75 292.46,-107.75"/>
<text text-anchor="middle" x="259" y="-90.45" font-family="Arial" font-size="14.00" fill="#c6c5fe">feat/click.ts</text>
</g>
<!-- App.vue&#45;&gt;feat/click.ts -->
<g id="edge2" class="edge">
<title>App.vue&#45;&gt;feat/click.ts</title>
<path fill="none" stroke="#757575" d="M161.97,-80.12C175.31,-82.31 191.14,-84.91 206.07,-87.35"/>
<polygon fill="#757575" stroke="#757575" points="205.32,-90.78 215.75,-88.94 206.45,-83.87 205.32,-90.78"/>
</g>
<!-- feat/nextPage.ts -->
<g id="node4" class="node">
<title>feat/nextPage.ts</title>
<path fill="none" stroke="#cfffac" d="M307.83,-65.75C307.83,-65.75 210.17,-65.75 210.17,-65.75 206.21,-65.75 202.25,-61.79 202.25,-57.83 202.25,-57.83 202.25,-49.92 202.25,-49.92 202.25,-45.96 206.21,-42 210.17,-42 210.17,-42 307.83,-42 307.83,-42 311.79,-42 315.75,-45.96 315.75,-49.92 315.75,-49.92 315.75,-57.83 315.75,-57.83 315.75,-61.79 311.79,-65.75 307.83,-65.75"/>
<text text-anchor="middle" x="259" y="-48.45" font-family="Arial" font-size="14.00" fill="#cfffac">feat/nextPage.ts</text>
</g>
<!-- App.vue&#45;&gt;feat/nextPage.ts -->
<g id="edge3" class="edge">
<title>App.vue&#45;&gt;feat/nextPage.ts</title>
<path fill="none" stroke="#757575" d="M161.97,-69.63C170.74,-68.19 180.59,-66.58 190.55,-64.94"/>
<polygon fill="#757575" stroke="#757575" points="191,-68.41 200.3,-63.34 189.87,-61.51 191,-68.41"/>
</g>
<!-- feat/虚拟scroll.ts -->
<g id="node5" class="node">
<title>feat/虚拟scroll.ts</title>
<path fill="none" stroke="#c6c5fe" d="M312.33,-23.75C312.33,-23.75 205.67,-23.75 205.67,-23.75 201.71,-23.75 197.75,-19.79 197.75,-15.83 197.75,-15.83 197.75,-7.92 197.75,-7.92 197.75,-3.96 201.71,0 205.67,0 205.67,0 312.33,0 312.33,0 316.29,0 320.25,-3.96 320.25,-7.92 320.25,-7.92 320.25,-15.83 320.25,-15.83 320.25,-19.79 316.29,-23.75 312.33,-23.75"/>
<text text-anchor="middle" x="259" y="-6.45" font-family="Arial" font-size="14.00" fill="#c6c5fe">feat/虚拟scroll.ts</text>
</g>
<!-- App.vue&#45;&gt;feat/虚拟scroll.ts -->
<g id="edge4" class="edge">
<title>App.vue&#45;&gt;feat/虚拟scroll.ts</title>
<path fill="none" stroke="#757575" d="M147.51,-62.53C160.84,-53.5 179.89,-41.4 197.75,-32.88 201.05,-31.3 204.5,-29.78 208.01,-28.33"/>
<polygon fill="#757575" stroke="#757575" points="209.15,-31.65 217.19,-24.75 206.6,-25.12 209.15,-31.65"/>
</g>
<!-- feat/click.ts&#45;&gt;data.ts -->
<g id="edge5" class="edge">
<title>feat/click.ts&#45;&gt;data.ts</title>
<path fill="none" stroke="#757575" d="M300.78,-95.88C314.94,-95.88 330.77,-95.88 344.77,-95.88"/>
<polygon fill="#757575" stroke="#757575" points="344.5,-99.38 354.5,-95.88 344.5,-92.38 344.5,-99.38"/>
</g>
<!-- feat/虚拟scroll.ts&#45;&gt;data.ts -->
<g id="edge6" class="edge">
<title>feat/虚拟scroll.ts&#45;&gt;data.ts</title>
<path fill="none" stroke="#757575" d="M302.92,-24.14C308.94,-26.62 314.9,-29.52 320.25,-32.88 338.18,-44.1 354.97,-61.27 366.74,-74.85"/>
<polygon fill="#757575" stroke="#757575" points="363.96,-76.98 373.07,-82.4 369.33,-72.48 363.96,-76.98"/>
</g>
<!-- main.ts -->
<g id="node6" class="node">
<title>main.ts</title>
<path fill="none" stroke="#c6c5fe" d="M52.33,-86.75C52.33,-86.75 7.92,-86.75 7.92,-86.75 3.96,-86.75 0,-82.79 0,-78.83 0,-78.83 0,-70.92 0,-70.92 0,-66.96 3.96,-63 7.92,-63 7.92,-63 52.33,-63 52.33,-63 56.29,-63 60.25,-66.96 60.25,-70.92 60.25,-70.92 60.25,-78.83 60.25,-78.83 60.25,-82.79 56.29,-86.75 52.33,-86.75"/>
<text text-anchor="middle" x="30.12" y="-69.45" font-family="Arial" font-size="14.00" fill="#c6c5fe">main.ts</text>
</g>
<!-- main.ts&#45;&gt;App.vue -->
<g id="edge7" class="edge">
<title>main.ts&#45;&gt;App.vue</title>
<path fill="none" stroke="#757575" d="M60.72,-74.88C68.19,-74.88 76.38,-74.88 84.39,-74.88"/>
<polygon fill="#757575" stroke="#757575" points="84.38,-78.38 94.38,-74.88 84.38,-71.38 84.38,-78.38"/>
</g>
</g>
</svg>
